<svg width="800px" height="800px" viewBox="0 0 15 15" fill="none" xmlns="http://www.w3.org/2000/svg">
<path d="M91.6364 36.8182H66.3636C66.5455 34.6667 66.4242 32.7273 66 31C65.5758 29.2727 64.8485 27.7879 63.8182 26.5455C62.7879 25.2727 61.4394 24.303 59.7727 23.6364C58.1061 22.9697 56.1212 22.6364 53.8182 22.6364C49.3939 22.6364 45.4394 23.7424 41.9545 25.9545C38.4697 28.1364 35.5758 31.2727 33.2727 35.3636C30.9697 39.4242 29.3333 44.2727 28.3636 49.9091C27.5152 55.3636 27.4849 59.8939 28.2727 63.5C29.0909 67.1061 30.6818 69.803 33.0455 71.5909C35.4394 73.3788 38.5455 74.2727 42.3636 74.2727C44.9091 74.2727 47.2424 73.9697 49.3636 73.3636C51.5152 72.7576 53.4242 71.8939 55.0909 70.7727C56.7879 69.6212 58.2273 68.2576 59.4091 66.6818C60.6212 65.0758 61.5455 63.303 62.1818 61.3636H87.6364C86.6667 65.303 84.9394 69.3333 82.4546 73.4545C79.9697 77.5455 76.7576 81.3182 72.8182 84.7727C68.8788 88.197 64.2424 90.9697 58.9091 93.0909C53.5758 95.2121 47.5758 96.2727 40.9091 96.2727C32.1818 96.2727 24.6515 94.3636 18.3182 90.5455C12.0152 86.7273 7.43939 81.1515 4.59091 73.8182C1.77273 66.4848 1.21212 57.5455 2.90909 47C4.60606 36.8182 7.95455 28.2879 12.9545 21.4091C17.9545 14.5303 24.0303 9.34848 31.1818 5.86363C38.3333 2.37878 45.9394 0.63636 54 0.63636C60.0909 0.63636 65.5455 1.43939 70.3636 3.04545C75.2121 4.65151 79.2879 7 82.5909 10.0909C85.9242 13.1515 88.3788 16.9242 89.9546 21.4091C91.5303 25.8939 92.0909 31.0303 91.6364 36.8182Z" fill="white"/>
</svg>

